<svg xmlns="http://www.w3.org/2000/svg" viewBox="0 0 720 620" role="img" aria-labelledby="title desc">
  <title id="title">Abstract research map</title>
  <desc id="desc">Connected notes and axes representing research directions.</desc>
  <defs>
    <linearGradient id="paper" x1="0" x2="1" y1="0" y2="1">
      <stop offset="0" stop-color="#fffdf7"/>
      <stop offset="1" stop-color="#eef7f3"/>
    </linearGradient>
    <filter id="soft" x="-20%" y="-20%" width="140%" height="140%">
      <feDropShadow dx="0" dy="18" stdDeviation="20" flood-color="#1e2528" flood-opacity=".12"/>
    </filter>
  </defs>
  <rect width="720" height="620" fill="url(#paper)"/>
  <path d="M96 112h528M96 198h528M96 284h528M96 370h528M96 456h528M96 542h528" stroke="#d9ddd5" stroke-width="1"/>
  <path d="M158 84v456M282 84v456M406 84v456M530 84v456" stroke="#e4e1d8" stroke-width="1"/>
  <g filter="url(#soft)">
    <rect x="86" y="84" width="204" height="136" rx="8" fill="#ffffff"/>
    <rect x="376" y="94" width="234" height="152" rx="8" fill="#ffffff"/>
    <rect x="152" y="330" width="220" height="142" rx="8" fill="#ffffff"/>
    <rect x="430" y="376" width="152" height="96" rx="8" fill="#ffffff"/>
  </g>
  <g fill="none" stroke-linecap="round" stroke-linejoin="round">
    <path d="M214 220c28 54 74 82 138 86 56 4 90 28 102 70" stroke="#0f766e" stroke-width="4"/>
    <path d="M486 246c-8 46-34 78-78 96" stroke="#8b2f3c" stroke-width="4"/>
    <path d="M282 148c44 6 78 20 104 42" stroke="#b98520" stroke-width="4"/>
  </g>
  <g>
    <circle cx="214" cy="220" r="12" fill="#0f766e"/>
    <circle cx="486" cy="246" r="12" fill="#8b2f3c"/>
    <circle cx="454" cy="376" r="12" fill="#275b8c"/>
    <circle cx="282" cy="148" r="12" fill="#b98520"/>
  </g>
  <g font-family="ui-sans-serif, system-ui, sans-serif" letter-spacing="0">
    <text x="118" y="126" fill="#0b4f49" font-size="18" font-weight="700">Video</text>
    <text x="118" y="158" fill="#627071" font-size="15">generation</text>
    <text x="118" y="184" fill="#627071" font-size="15">temporal models</text>
    <text x="408" y="138" fill="#8b2f3c" font-size="18" font-weight="700">Multimodal</text>
    <text x="408" y="170" fill="#627071" font-size="15">vision-language</text>
    <text x="408" y="196" fill="#627071" font-size="15">alignment</text>
    <text x="184" y="374" fill="#275b8c" font-size="18" font-weight="700">Efficiency</text>
    <text x="184" y="406" fill="#627071" font-size="15">sparse attention</text>
    <text x="184" y="432" fill="#627071" font-size="15">fast sampling</text>
    <text x="462" y="414" fill="#1e2528" font-size="16" font-weight="700">Embodied</text>
    <text x="462" y="442" fill="#627071" font-size="14">control</text>
  </g>
  <path d="M96 548c98-6 162-24 232-72 96-66 190-82 296-52" fill="none" stroke="#1e2528" stroke-width="2" stroke-dasharray="8 12" opacity=".35"/>
</svg>
